<mxfile>
    <diagram id="u_htR7RuGnKRMirglS4_" name="Page-1">
        <mxGraphModel dx="7873" dy="5267" grid="1" gridSize="10" guides="1" tooltips="1" connect="0" arrows="1" fold="1" page="1" pageScale="1" pageWidth="850" pageHeight="1100" math="0" shadow="0">
            <root>
                <mxCell id="0"/>
                <mxCell id="1" parent="0"/>
                <mxCell id="2" value="Index Start" style="ellipse;whiteSpace=wrap;html=1;" vertex="1" parent="1">
                    <mxGeometry x="1150" y="170" width="120" height="80" as="geometry"/>
                </mxCell>
                <mxCell id="3" value="" style="endArrow=classic;html=1;exitX=0.5;exitY=1;exitDx=0;exitDy=0;" edge="1" parent="1" source="2" target="4">
                    <mxGeometry width="50" height="50" relative="1" as="geometry">
                        <mxPoint x="1170" y="460" as="sourcePoint"/>
                        <mxPoint x="1220" y="410" as="targetPoint"/>
                    </mxGeometry>
                </mxCell>
                <mxCell id="4" value="Display Shelves&amp;nbsp;&lt;br&gt;(One shelf per year)" style="shape=document;whiteSpace=wrap;html=1;boundedLbl=1;" vertex="1" parent="1">
                    <mxGeometry x="1150" y="320" width="120" height="80" as="geometry"/>
                </mxCell>
                <mxCell id="5" value="" style="endArrow=classic;html=1;exitX=0.427;exitY=0.973;exitDx=0;exitDy=0;exitPerimeter=0;" edge="1" parent="1" source="4" target="6">
                    <mxGeometry width="50" height="50" relative="1" as="geometry">
                        <mxPoint x="1170" y="450" as="sourcePoint"/>
                        <mxPoint x="1220" y="400" as="targetPoint"/>
                    </mxGeometry>
                </mxCell>
                <mxCell id="6" value="Display &quot;Books&quot; on shelves- one book per month" style="shape=document;whiteSpace=wrap;html=1;boundedLbl=1;" vertex="1" parent="1">
                    <mxGeometry x="1140" y="470" width="120" height="80" as="geometry"/>
                </mxCell>
                <mxCell id="7" value="User Selects book?" style="rhombus;whiteSpace=wrap;html=1;" vertex="1" parent="1">
                    <mxGeometry x="1360" y="470" width="80" height="80" as="geometry"/>
                </mxCell>
                <mxCell id="8" value="" style="endArrow=classic;html=1;exitX=1;exitY=0.5;exitDx=0;exitDy=0;entryX=0;entryY=0.5;entryDx=0;entryDy=0;" edge="1" parent="1" source="6" target="7">
                    <mxGeometry width="50" height="50" relative="1" as="geometry">
                        <mxPoint x="1170" y="440" as="sourcePoint"/>
                        <mxPoint x="1220" y="390" as="targetPoint"/>
                    </mxGeometry>
                </mxCell>
                <mxCell id="9" value="" style="endArrow=classic;html=1;exitX=1;exitY=0.5;exitDx=0;exitDy=0;" edge="1" parent="1" source="7">
                    <mxGeometry width="50" height="50" relative="1" as="geometry">
                        <mxPoint x="1170" y="430" as="sourcePoint"/>
                        <mxPoint x="1509.9999999999995" y="510" as="targetPoint"/>
                    </mxGeometry>
                </mxCell>
                <mxCell id="10" value="Yes(click)" style="text;html=1;align=center;verticalAlign=middle;resizable=0;points=[];autosize=1;" vertex="1" parent="1">
                    <mxGeometry x="1440" y="490" width="70" height="20" as="geometry"/>
                </mxCell>
                <mxCell id="11" value="Display links to daily/monthly logs" style="shape=document;whiteSpace=wrap;html=1;boundedLbl=1;" vertex="1" parent="1">
                    <mxGeometry x="1510" y="480" width="120" height="80" as="geometry"/>
                </mxCell>
                <mxCell id="12" value="" style="endArrow=classic;html=1;exitX=0.5;exitY=0;exitDx=0;exitDy=0;" edge="1" parent="1" source="11" target="13">
                    <mxGeometry width="50" height="50" relative="1" as="geometry">
                        <mxPoint x="1390" y="450" as="sourcePoint"/>
                        <mxPoint x="1570" y="380" as="targetPoint"/>
                    </mxGeometry>
                </mxCell>
                <mxCell id="13" value="Display log that was accessed" style="whiteSpace=wrap;html=1;aspect=fixed;" vertex="1" parent="1">
                    <mxGeometry x="1540" y="360" width="60" height="60" as="geometry"/>
                </mxCell>
                <mxCell id="14" value="DL" style="triangle;whiteSpace=wrap;html=1;direction=north;" vertex="1" parent="1">
                    <mxGeometry x="1545" y="320" width="50" height="40" as="geometry"/>
                </mxCell>
                <mxCell id="15" value="Display Nav bar w/ access to logs/collections&amp;nbsp; or find tasks" style="shape=document;whiteSpace=wrap;html=1;boundedLbl=1;" vertex="1" parent="1">
                    <mxGeometry x="970" y="470" width="120" height="80" as="geometry"/>
                </mxCell>
                <mxCell id="16" value="" style="endArrow=classic;html=1;entryX=1.007;entryY=0.378;entryDx=0;entryDy=0;entryPerimeter=0;exitX=-0.037;exitY=0.408;exitDx=0;exitDy=0;exitPerimeter=0;" edge="1" parent="1" source="6" target="15">
                    <mxGeometry width="50" height="50" relative="1" as="geometry">
                        <mxPoint x="1110" y="530" as="sourcePoint"/>
                        <mxPoint x="1160" y="480" as="targetPoint"/>
                    </mxGeometry>
                </mxCell>
                <mxCell id="17" value="Search?" style="rhombus;whiteSpace=wrap;html=1;" vertex="1" parent="1">
                    <mxGeometry x="820" y="600" width="80" height="80" as="geometry"/>
                </mxCell>
                <mxCell id="18" value="" style="endArrow=classic;html=1;entryX=1;entryY=0.25;entryDx=0;entryDy=0;exitX=0;exitY=0.5;exitDx=0;exitDy=0;" edge="1" parent="1" source="15" target="19">
                    <mxGeometry width="50" height="50" relative="1" as="geometry">
                        <mxPoint x="920" y="530" as="sourcePoint"/>
                        <mxPoint x="970" y="480" as="targetPoint"/>
                    </mxGeometry>
                </mxCell>
                <mxCell id="19" value="User search bar input" style="shape=parallelogram;perimeter=parallelogramPerimeter;whiteSpace=wrap;html=1;fixedSize=1;" vertex="1" parent="1">
                    <mxGeometry x="800" y="480" width="120" height="60" as="geometry"/>
                </mxCell>
                <mxCell id="20" value="" style="endArrow=classic;html=1;" edge="1" parent="1" target="17">
                    <mxGeometry width="50" height="50" relative="1" as="geometry">
                        <mxPoint x="862" y="550.0000000000002" as="sourcePoint"/>
                        <mxPoint x="890" y="430" as="targetPoint"/>
                    </mxGeometry>
                </mxCell>
                <mxCell id="21" value="Display Search Query" style="shape=document;whiteSpace=wrap;html=1;boundedLbl=1;" vertex="1" parent="1">
                    <mxGeometry x="810" y="730" width="120" height="80" as="geometry"/>
                </mxCell>
                <mxCell id="22" value="" style="endArrow=classic;html=1;exitX=0.5;exitY=1;exitDx=0;exitDy=0;entryX=0.397;entryY=-0.003;entryDx=0;entryDy=0;entryPerimeter=0;" edge="1" parent="1" source="17" target="21">
                    <mxGeometry width="50" height="50" relative="1" as="geometry">
                        <mxPoint x="1110" y="610" as="sourcePoint"/>
                        <mxPoint x="1160" y="560" as="targetPoint"/>
                    </mxGeometry>
                </mxCell>
                <mxCell id="23" value="Yes(Click)" style="text;html=1;align=center;verticalAlign=middle;resizable=0;points=[];autosize=1;" vertex="1" parent="1">
                    <mxGeometry x="845" y="690" width="70" height="20" as="geometry"/>
                </mxCell>
                <mxCell id="24" value="" style="endArrow=classic;html=1;exitX=0.48;exitY=0.927;exitDx=0;exitDy=0;exitPerimeter=0;" edge="1" parent="1" source="6" target="26">
                    <mxGeometry width="50" height="50" relative="1" as="geometry">
                        <mxPoint x="1110" y="610" as="sourcePoint"/>
                        <mxPoint x="1198" y="620" as="targetPoint"/>
                    </mxGeometry>
                </mxCell>
                <mxCell id="25" style="edgeStyle=orthogonalEdgeStyle;rounded=0;orthogonalLoop=1;jettySize=auto;html=1;exitX=1;exitY=0.5;exitDx=0;exitDy=0;entryX=1;entryY=0.5;entryDx=0;entryDy=0;" edge="1" parent="1" source="26" target="13">
                    <mxGeometry relative="1" as="geometry">
                        <mxPoint x="1660" y="410" as="targetPoint"/>
                        <Array as="points">
                            <mxPoint x="1650" y="620"/>
                            <mxPoint x="1650" y="390"/>
                        </Array>
                    </mxGeometry>
                </mxCell>
                <mxCell id="26" value="Jump to today?" style="rhombus;whiteSpace=wrap;html=1;" vertex="1" parent="1">
                    <mxGeometry x="1158" y="580" width="80" height="80" as="geometry"/>
                </mxCell>
                <mxCell id="27" value="Yes(click)" style="text;html=1;strokeColor=none;fillColor=none;align=center;verticalAlign=middle;whiteSpace=wrap;rounded=0;" vertex="1" parent="1">
                    <mxGeometry x="1400" y="600" width="40" height="20" as="geometry"/>
                </mxCell>
                <mxCell id="28" value="" style="endArrow=classic;html=1;exitX=0.007;exitY=0.919;exitDx=0;exitDy=0;exitPerimeter=0;entryX=0.5;entryY=0;entryDx=0;entryDy=0;" edge="1" parent="1" source="6" target="29">
                    <mxGeometry width="50" height="50" relative="1" as="geometry">
                        <mxPoint x="1360" y="620" as="sourcePoint"/>
                        <mxPoint x="1090" y="630" as="targetPoint"/>
                    </mxGeometry>
                </mxCell>
                <mxCell id="29" value="Rapid Log?" style="rhombus;whiteSpace=wrap;html=1;" vertex="1" parent="1">
                    <mxGeometry x="1050" y="590" width="80" height="80" as="geometry"/>
                </mxCell>
                <mxCell id="30" value="Display New Log for current day" style="whiteSpace=wrap;html=1;aspect=fixed;" vertex="1" parent="1">
                    <mxGeometry x="1070" y="720" width="60" height="60" as="geometry"/>
                </mxCell>
                <mxCell id="31" value="EL" style="triangle;whiteSpace=wrap;html=1;direction=south;" vertex="1" parent="1">
                    <mxGeometry x="1065" y="780" width="70" height="30" as="geometry"/>
                </mxCell>
                <mxCell id="32" value="" style="endArrow=classic;html=1;exitX=0.5;exitY=1;exitDx=0;exitDy=0;entryX=0.5;entryY=0;entryDx=0;entryDy=0;" edge="1" parent="1" source="29" target="30">
                    <mxGeometry width="50" height="50" relative="1" as="geometry">
                        <mxPoint x="1360" y="600" as="sourcePoint"/>
                        <mxPoint x="1410" y="550" as="targetPoint"/>
                    </mxGeometry>
                </mxCell>
                <mxCell id="33" value="Yes(click)" style="text;html=1;align=center;verticalAlign=middle;resizable=0;points=[];autosize=1;" vertex="1" parent="1">
                    <mxGeometry x="1088" y="680" width="70" height="20" as="geometry"/>
                </mxCell>
                <mxCell id="185" value="Daily Log Start" style="ellipse;whiteSpace=wrap;html=1;" vertex="1" parent="1">
                    <mxGeometry x="1040" y="940" width="120" height="80" as="geometry"/>
                </mxCell>
                <mxCell id="186" value="Daily log displayed" style="rounded=1;whiteSpace=wrap;html=1;" vertex="1" parent="1">
                    <mxGeometry x="1040" y="1140" width="120" height="60" as="geometry"/>
                </mxCell>
                <mxCell id="187" value="Automigrate unfinished tasks" style="rounded=1;whiteSpace=wrap;html=1;" vertex="1" parent="1">
                    <mxGeometry x="1520" y="1140" width="120" height="60" as="geometry"/>
                </mxCell>
                <mxCell id="188" value="" style="endArrow=classic;html=1;entryX=0;entryY=0.5;entryDx=0;entryDy=0;" edge="1" parent="1" target="194">
                    <mxGeometry width="50" height="50" relative="1" as="geometry">
                        <mxPoint x="1160" y="1170" as="sourcePoint"/>
                        <mxPoint x="1289.9999999999998" y="1169.9999999999998" as="targetPoint"/>
                    </mxGeometry>
                </mxCell>
                <mxCell id="189" value="" style="endArrow=classic;html=1;exitX=1;exitY=0.5;exitDx=0;exitDy=0;" edge="1" parent="1" source="194">
                    <mxGeometry width="50" height="50" relative="1" as="geometry">
                        <mxPoint x="1390" y="1169.6599999999999" as="sourcePoint"/>
                        <mxPoint x="1520" y="1169.6599999999999" as="targetPoint"/>
                    </mxGeometry>
                </mxCell>
                <mxCell id="190" value="Yes" style="edgeLabel;html=1;align=center;verticalAlign=middle;resizable=0;points=[];" vertex="1" connectable="0" parent="189">
                    <mxGeometry x="-0.1383" y="1" relative="1" as="geometry">
                        <mxPoint as="offset"/>
                    </mxGeometry>
                </mxCell>
                <mxCell id="191" value="" style="endArrow=classic;html=1;exitX=0.5;exitY=1;exitDx=0;exitDy=0;entryX=0.5;entryY=0;entryDx=0;entryDy=0;" edge="1" parent="1" source="185" target="186">
                    <mxGeometry width="50" height="50" relative="1" as="geometry">
                        <mxPoint x="1070" y="1060" as="sourcePoint"/>
                        <mxPoint x="1199.9999999999998" y="1059.9999999999998" as="targetPoint"/>
                    </mxGeometry>
                </mxCell>
                <mxCell id="192" value="Current tasks/notes/events&lt;br&gt;opened as text field" style="rounded=1;whiteSpace=wrap;html=1;" vertex="1" parent="1">
                    <mxGeometry x="1520" y="1380" width="120" height="60" as="geometry"/>
                </mxCell>
                <mxCell id="193" value="Tasks/notes/events&lt;br&gt;updated" style="shape=parallelogram;perimeter=parallelogramPerimeter;whiteSpace=wrap;html=1;fixedSize=1;rounded=1;" vertex="1" parent="1">
                    <mxGeometry x="2000" y="1700" width="120" height="60" as="geometry"/>
                </mxCell>
                <mxCell id="194" value="Timeframe expired" style="rhombus;whiteSpace=wrap;html=1;rounded=0;" vertex="1" parent="1">
                    <mxGeometry x="1300" y="1130" width="80" height="80" as="geometry"/>
                </mxCell>
                <mxCell id="195" value="Tasks/Notes/Events&lt;br&gt;section selected" style="rhombus;whiteSpace=wrap;html=1;rounded=0;" vertex="1" parent="1">
                    <mxGeometry x="1300" y="1370" width="80" height="80" as="geometry"/>
                </mxCell>
                <mxCell id="196" value="" style="endArrow=classic;html=1;entryX=0;entryY=0.5;entryDx=0;entryDy=0;" edge="1" parent="1" target="195">
                    <mxGeometry width="50" height="50" relative="1" as="geometry">
                        <mxPoint x="1100" y="1200" as="sourcePoint"/>
                        <mxPoint x="1239.9999999999998" y="1279.9999999999998" as="targetPoint"/>
                        <Array as="points">
                            <mxPoint x="1100" y="1410"/>
                        </Array>
                    </mxGeometry>
                </mxCell>
                <mxCell id="197" value="" style="endArrow=classic;html=1;entryX=0;entryY=0.5;entryDx=0;entryDy=0;exitX=1;exitY=0.5;exitDx=0;exitDy=0;" edge="1" parent="1" source="195" target="192">
                    <mxGeometry width="50" height="50" relative="1" as="geometry">
                        <mxPoint x="1470" y="1300" as="sourcePoint"/>
                        <mxPoint x="1490" y="1360" as="targetPoint"/>
                    </mxGeometry>
                </mxCell>
                <mxCell id="198" value="Yes" style="edgeLabel;html=1;align=center;verticalAlign=middle;resizable=0;points=[];" vertex="1" connectable="0" parent="197">
                    <mxGeometry x="-0.1383" y="1" relative="1" as="geometry">
                        <mxPoint as="offset"/>
                    </mxGeometry>
                </mxCell>
                <mxCell id="199" value="" style="endArrow=none;html=1;" edge="1" parent="1">
                    <mxGeometry width="50" height="50" relative="1" as="geometry">
                        <mxPoint x="1340" y="1370" as="sourcePoint"/>
                        <mxPoint x="1320" y="1060" as="targetPoint"/>
                        <Array as="points">
                            <mxPoint x="1340" y="1240"/>
                            <mxPoint x="1800" y="1240"/>
                            <mxPoint x="1800" y="1060"/>
                        </Array>
                    </mxGeometry>
                </mxCell>
                <mxCell id="200" value="No" style="edgeLabel;html=1;align=center;verticalAlign=middle;resizable=0;points=[];" vertex="1" connectable="0" parent="199">
                    <mxGeometry x="-0.9317" y="1" relative="1" as="geometry">
                        <mxPoint x="1" as="offset"/>
                    </mxGeometry>
                </mxCell>
                <mxCell id="201" value="Meni icon selected" style="rhombus;whiteSpace=wrap;html=1;rounded=0;" vertex="1" parent="1">
                    <mxGeometry x="820" y="1130" width="80" height="80" as="geometry"/>
                </mxCell>
                <mxCell id="202" value="" style="endArrow=classic;html=1;entryX=1;entryY=0.5;entryDx=0;entryDy=0;exitX=0;exitY=0.5;exitDx=0;exitDy=0;" edge="1" parent="1" source="186" target="201">
                    <mxGeometry width="50" height="50" relative="1" as="geometry">
                        <mxPoint x="890" y="1230" as="sourcePoint"/>
                        <mxPoint x="1030.0000000000002" y="1230" as="targetPoint"/>
                    </mxGeometry>
                </mxCell>
                <mxCell id="203" value="" style="endArrow=none;html=1;entryX=0.5;entryY=0;entryDx=0;entryDy=0;" edge="1" parent="1" target="194">
                    <mxGeometry width="50" height="50" relative="1" as="geometry">
                        <mxPoint x="1100" y="1060" as="sourcePoint"/>
                        <mxPoint x="1240" y="1030" as="targetPoint"/>
                        <Array as="points">
                            <mxPoint x="1340" y="1060"/>
                        </Array>
                    </mxGeometry>
                </mxCell>
                <mxCell id="204" value="No" style="edgeLabel;html=1;align=center;verticalAlign=middle;resizable=0;points=[];" vertex="1" connectable="0" parent="203">
                    <mxGeometry x="0.7882" y="2" relative="1" as="geometry">
                        <mxPoint x="-2" as="offset"/>
                    </mxGeometry>
                </mxCell>
                <mxCell id="205" value="" style="endArrow=none;html=1;exitX=0.5;exitY=0;exitDx=0;exitDy=0;" edge="1" parent="1" source="201">
                    <mxGeometry width="50" height="50" relative="1" as="geometry">
                        <mxPoint x="870" y="1110" as="sourcePoint"/>
                        <mxPoint x="1100" y="1060" as="targetPoint"/>
                        <Array as="points">
                            <mxPoint x="860" y="1060"/>
                        </Array>
                    </mxGeometry>
                </mxCell>
                <mxCell id="206" value="No" style="edgeLabel;html=1;align=center;verticalAlign=middle;resizable=0;points=[];" vertex="1" connectable="0" parent="205">
                    <mxGeometry x="-0.7989" y="-1" relative="1" as="geometry">
                        <mxPoint x="-1" as="offset"/>
                    </mxGeometry>
                </mxCell>
                <mxCell id="207" value="" style="endArrow=classic;html=1;entryX=1;entryY=0.5;entryDx=0;entryDy=0;exitX=0;exitY=0.5;exitDx=0;exitDy=0;" edge="1" parent="1">
                    <mxGeometry width="50" height="50" relative="1" as="geometry">
                        <mxPoint x="820" y="1169.58" as="sourcePoint"/>
                        <mxPoint x="680" y="1169.58" as="targetPoint"/>
                    </mxGeometry>
                </mxCell>
                <mxCell id="208" value="Yes" style="edgeLabel;html=1;align=center;verticalAlign=middle;resizable=0;points=[];" vertex="1" connectable="0" parent="207">
                    <mxGeometry x="-0.1464" y="2" relative="1" as="geometry">
                        <mxPoint y="-1.58" as="offset"/>
                    </mxGeometry>
                </mxCell>
                <mxCell id="209" value="Menu displayed" style="rounded=1;whiteSpace=wrap;html=1;" vertex="1" parent="1">
                    <mxGeometry x="560" y="1140" width="120" height="60" as="geometry"/>
                </mxCell>
                <mxCell id="210" value="" style="endArrow=none;html=1;exitX=0;exitY=0.5;exitDx=0;exitDy=0;" edge="1" parent="1" source="282">
                    <mxGeometry width="50" height="50" relative="1" as="geometry">
                        <mxPoint x="290" y="1100" as="sourcePoint"/>
                        <mxPoint x="870" y="1060" as="targetPoint"/>
                        <Array as="points">
                            <mxPoint x="290" y="1120"/>
                            <mxPoint x="290" y="1060"/>
                        </Array>
                    </mxGeometry>
                </mxCell>
                <mxCell id="211" value="Yes" style="edgeLabel;html=1;align=center;verticalAlign=middle;resizable=0;points=[];" vertex="1" connectable="0" parent="210">
                    <mxGeometry x="-0.9193" y="-2" relative="1" as="geometry">
                        <mxPoint as="offset"/>
                    </mxGeometry>
                </mxCell>
                <mxCell id="212" value="Existing task&lt;br&gt;selected" style="rhombus;whiteSpace=wrap;html=1;rounded=0;" vertex="1" parent="1">
                    <mxGeometry x="1300" y="2320" width="80" height="80" as="geometry"/>
                </mxCell>
                <mxCell id="213" value="Ellipsis menu&lt;br&gt;displayed" style="rounded=1;whiteSpace=wrap;html=1;" vertex="1" parent="1">
                    <mxGeometry x="1520" y="2330" width="120" height="60" as="geometry"/>
                </mxCell>
                <mxCell id="214" value="Marked for completion" style="rhombus;whiteSpace=wrap;html=1;rounded=0;" vertex="1" parent="1">
                    <mxGeometry x="1780" y="2250" width="80" height="80" as="geometry"/>
                </mxCell>
                <mxCell id="215" value="" style="endArrow=classic;html=1;exitX=1;exitY=0.5;exitDx=0;exitDy=0;entryX=0;entryY=0.5;entryDx=0;entryDy=0;" edge="1" parent="1" target="213">
                    <mxGeometry width="50" height="50" relative="1" as="geometry">
                        <mxPoint x="1380" y="2359.58" as="sourcePoint"/>
                        <mxPoint x="1510" y="2360" as="targetPoint"/>
                    </mxGeometry>
                </mxCell>
                <mxCell id="216" value="Yes" style="edgeLabel;html=1;align=center;verticalAlign=middle;resizable=0;points=[];" vertex="1" connectable="0" parent="215">
                    <mxGeometry x="-0.1383" y="1" relative="1" as="geometry">
                        <mxPoint as="offset"/>
                    </mxGeometry>
                </mxCell>
                <mxCell id="217" value="" style="endArrow=classic;html=1;entryX=0;entryY=0.5;entryDx=0;entryDy=0;" edge="1" parent="1" target="212">
                    <mxGeometry width="50" height="50" relative="1" as="geometry">
                        <mxPoint x="1100" y="1400" as="sourcePoint"/>
                        <mxPoint x="1270" y="2160" as="targetPoint"/>
                        <Array as="points">
                            <mxPoint x="1100" y="2360"/>
                        </Array>
                    </mxGeometry>
                </mxCell>
                <mxCell id="218" value="Marked for&lt;br&gt;deletion" style="rhombus;whiteSpace=wrap;html=1;rounded=0;" vertex="1" parent="1">
                    <mxGeometry x="1780" y="2130" width="80" height="80" as="geometry"/>
                </mxCell>
                <mxCell id="219" value="Marked for&lt;br&gt;migration" style="rhombus;whiteSpace=wrap;html=1;rounded=0;" vertex="1" parent="1">
                    <mxGeometry x="1780" y="2390" width="80" height="80" as="geometry"/>
                </mxCell>
                <mxCell id="220" value="Marked for discard" style="rhombus;whiteSpace=wrap;html=1;rounded=0;" vertex="1" parent="1">
                    <mxGeometry x="1780" y="2510" width="80" height="80" as="geometry"/>
                </mxCell>
                <mxCell id="221" value="" style="endArrow=classic;html=1;entryX=0;entryY=0.5;entryDx=0;entryDy=0;exitX=1;exitY=0.5;exitDx=0;exitDy=0;" edge="1" parent="1" source="213" target="214">
                    <mxGeometry width="50" height="50" relative="1" as="geometry">
                        <mxPoint x="1660" y="2330" as="sourcePoint"/>
                        <mxPoint x="1710" y="2280" as="targetPoint"/>
                        <Array as="points">
                            <mxPoint x="1720" y="2360"/>
                            <mxPoint x="1720" y="2290"/>
                        </Array>
                    </mxGeometry>
                </mxCell>
                <mxCell id="222" value="" style="endArrow=classic;html=1;entryX=0;entryY=0.5;entryDx=0;entryDy=0;exitX=1;exitY=0.25;exitDx=0;exitDy=0;" edge="1" parent="1" source="213" target="218">
                    <mxGeometry width="50" height="50" relative="1" as="geometry">
                        <mxPoint x="1680" y="2340" as="sourcePoint"/>
                        <mxPoint x="1780" y="2233" as="targetPoint"/>
                        <Array as="points">
                            <mxPoint x="1680" y="2345"/>
                            <mxPoint x="1680" y="2170"/>
                        </Array>
                    </mxGeometry>
                </mxCell>
                <mxCell id="223" value="" style="endArrow=classic;html=1;entryX=0;entryY=0.5;entryDx=0;entryDy=0;exitX=1;exitY=0.5;exitDx=0;exitDy=0;" edge="1" parent="1" target="220">
                    <mxGeometry width="50" height="50" relative="1" as="geometry">
                        <mxPoint x="1640" y="2380" as="sourcePoint"/>
                        <mxPoint x="1780" y="2310" as="targetPoint"/>
                        <Array as="points">
                            <mxPoint x="1680" y="2380"/>
                            <mxPoint x="1680" y="2550"/>
                        </Array>
                    </mxGeometry>
                </mxCell>
                <mxCell id="224" value="" style="endArrow=classic;html=1;entryX=0;entryY=0.5;entryDx=0;entryDy=0;exitX=0.996;exitY=0.673;exitDx=0;exitDy=0;exitPerimeter=0;" edge="1" parent="1" source="213" target="219">
                    <mxGeometry width="50" height="50" relative="1" as="geometry">
                        <mxPoint x="1650" y="2370" as="sourcePoint"/>
                        <mxPoint x="1790" y="2300" as="targetPoint"/>
                        <Array as="points">
                            <mxPoint x="1720" y="2370"/>
                            <mxPoint x="1720" y="2430"/>
                        </Array>
                    </mxGeometry>
                </mxCell>
                <mxCell id="225" value="Task deleted&lt;br&gt;from daily log" style="rounded=1;whiteSpace=wrap;html=1;" vertex="1" parent="1">
                    <mxGeometry x="2000" y="2140" width="120" height="60" as="geometry"/>
                </mxCell>
                <mxCell id="226" value="" style="endArrow=classic;html=1;entryX=0;entryY=0.5;entryDx=0;entryDy=0;exitX=1;exitY=0.5;exitDx=0;exitDy=0;" edge="1" parent="1">
                    <mxGeometry width="50" height="50" relative="1" as="geometry">
                        <mxPoint x="1860" y="2169.58" as="sourcePoint"/>
                        <mxPoint x="2000" y="2169.58" as="targetPoint"/>
                    </mxGeometry>
                </mxCell>
                <mxCell id="227" value="Yes" style="edgeLabel;html=1;align=center;verticalAlign=middle;resizable=0;points=[];" vertex="1" connectable="0" parent="226">
                    <mxGeometry x="-0.1383" y="1" relative="1" as="geometry">
                        <mxPoint as="offset"/>
                    </mxGeometry>
                </mxCell>
                <mxCell id="228" value="Task marked for&lt;br&gt;completion (checkmark)" style="rounded=1;whiteSpace=wrap;html=1;" vertex="1" parent="1">
                    <mxGeometry x="2000" y="2260" width="120" height="60" as="geometry"/>
                </mxCell>
                <mxCell id="229" value="" style="endArrow=classic;html=1;entryX=0;entryY=0.5;entryDx=0;entryDy=0;exitX=1;exitY=0.5;exitDx=0;exitDy=0;" edge="1" parent="1" source="214" target="228">
                    <mxGeometry width="50" height="50" relative="1" as="geometry">
                        <mxPoint x="1850" y="2380" as="sourcePoint"/>
                        <mxPoint x="1990" y="2380" as="targetPoint"/>
                    </mxGeometry>
                </mxCell>
                <mxCell id="230" value="Yes" style="edgeLabel;html=1;align=center;verticalAlign=middle;resizable=0;points=[];" vertex="1" connectable="0" parent="229">
                    <mxGeometry x="-0.1383" y="1" relative="1" as="geometry">
                        <mxPoint as="offset"/>
                    </mxGeometry>
                </mxCell>
                <mxCell id="231" value="Migration&lt;br&gt;timeframe specified&lt;br&gt;(rightarrow)" style="shape=parallelogram;perimeter=parallelogramPerimeter;whiteSpace=wrap;html=1;fixedSize=1;rounded=1;" vertex="1" parent="1">
                    <mxGeometry x="2000" y="2400" width="120" height="60" as="geometry"/>
                </mxCell>
                <mxCell id="232" value="Task migrated&lt;br&gt;based on given&lt;br&gt;timeframe" style="rounded=1;whiteSpace=wrap;html=1;" vertex="1" parent="1">
                    <mxGeometry x="2240" y="2400" width="120" height="60" as="geometry"/>
                </mxCell>
                <mxCell id="233" value="" style="endArrow=classic;html=1;entryX=0;entryY=0.5;entryDx=0;entryDy=0;exitX=1;exitY=0.5;exitDx=0;exitDy=0;" edge="1" parent="1" source="219" target="231">
                    <mxGeometry width="50" height="50" relative="1" as="geometry">
                        <mxPoint x="1860" y="2400" as="sourcePoint"/>
                        <mxPoint x="2000" y="2400" as="targetPoint"/>
                    </mxGeometry>
                </mxCell>
                <mxCell id="234" value="Yes" style="edgeLabel;html=1;align=center;verticalAlign=middle;resizable=0;points=[];" vertex="1" connectable="0" parent="233">
                    <mxGeometry x="-0.1383" y="1" relative="1" as="geometry">
                        <mxPoint as="offset"/>
                    </mxGeometry>
                </mxCell>
                <mxCell id="235" value="" style="endArrow=classic;html=1;entryX=0;entryY=0.5;entryDx=0;entryDy=0;" edge="1" parent="1" source="231" target="232">
                    <mxGeometry width="50" height="50" relative="1" as="geometry">
                        <mxPoint x="2140" y="2385" as="sourcePoint"/>
                        <mxPoint x="2190" y="2335" as="targetPoint"/>
                    </mxGeometry>
                </mxCell>
                <mxCell id="236" value="Task marked for&lt;br&gt;discard (strikethrough)" style="rounded=1;whiteSpace=wrap;html=1;" vertex="1" parent="1">
                    <mxGeometry x="2000" y="2520" width="120" height="60" as="geometry"/>
                </mxCell>
                <mxCell id="237" value="" style="endArrow=classic;html=1;entryX=0;entryY=0.5;entryDx=0;entryDy=0;exitX=1;exitY=0.5;exitDx=0;exitDy=0;" edge="1" parent="1" source="220" target="236">
                    <mxGeometry width="50" height="50" relative="1" as="geometry">
                        <mxPoint x="1820" y="2520" as="sourcePoint"/>
                        <mxPoint x="1970" y="2520" as="targetPoint"/>
                    </mxGeometry>
                </mxCell>
                <mxCell id="238" value="Yes" style="edgeLabel;html=1;align=center;verticalAlign=middle;resizable=0;points=[];" vertex="1" connectable="0" parent="237">
                    <mxGeometry x="-0.1383" y="1" relative="1" as="geometry">
                        <mxPoint as="offset"/>
                    </mxGeometry>
                </mxCell>
                <mxCell id="239" value="" style="endArrow=none;html=1;exitX=1;exitY=0.5;exitDx=0;exitDy=0;" edge="1" parent="1" source="236">
                    <mxGeometry width="50" height="50" relative="1" as="geometry">
                        <mxPoint x="2170" y="2530" as="sourcePoint"/>
                        <mxPoint x="1790" y="1060" as="targetPoint"/>
                        <Array as="points">
                            <mxPoint x="2720" y="2550"/>
                            <mxPoint x="2720" y="1060"/>
                        </Array>
                    </mxGeometry>
                </mxCell>
                <mxCell id="240" value="" style="endArrow=none;html=1;exitX=1;exitY=0.5;exitDx=0;exitDy=0;" edge="1" parent="1" source="232">
                    <mxGeometry width="50" height="50" relative="1" as="geometry">
                        <mxPoint x="2400" y="2420" as="sourcePoint"/>
                        <mxPoint x="2720" y="2390" as="targetPoint"/>
                        <Array as="points">
                            <mxPoint x="2720" y="2430"/>
                        </Array>
                    </mxGeometry>
                </mxCell>
                <mxCell id="241" value="" style="endArrow=none;html=1;exitX=1;exitY=0.5;exitDx=0;exitDy=0;" edge="1" parent="1" source="228">
                    <mxGeometry width="50" height="50" relative="1" as="geometry">
                        <mxPoint x="2360.0000000000005" y="2290" as="sourcePoint"/>
                        <mxPoint x="2720" y="2250" as="targetPoint"/>
                        <Array as="points">
                            <mxPoint x="2720" y="2290"/>
                        </Array>
                    </mxGeometry>
                </mxCell>
                <mxCell id="242" value="" style="endArrow=none;html=1;exitX=1;exitY=0.5;exitDx=0;exitDy=0;" edge="1" parent="1" source="225">
                    <mxGeometry width="50" height="50" relative="1" as="geometry">
                        <mxPoint x="2360.0000000000005" y="2170" as="sourcePoint"/>
                        <mxPoint x="2720" y="2130" as="targetPoint"/>
                        <Array as="points">
                            <mxPoint x="2720" y="2170"/>
                        </Array>
                    </mxGeometry>
                </mxCell>
                <mxCell id="243" value="" style="endArrow=none;html=1;entryX=0.5;entryY=0;entryDx=0;entryDy=0;" edge="1" parent="1" target="214">
                    <mxGeometry width="50" height="50" relative="1" as="geometry">
                        <mxPoint x="1720" y="2220" as="sourcePoint"/>
                        <mxPoint x="1770" y="2220" as="targetPoint"/>
                        <Array as="points">
                            <mxPoint x="1820" y="2220"/>
                        </Array>
                    </mxGeometry>
                </mxCell>
                <mxCell id="244" value="No" style="edgeLabel;html=1;align=center;verticalAlign=middle;resizable=0;points=[];" vertex="1" connectable="0" parent="243">
                    <mxGeometry x="0.8178" y="1" relative="1" as="geometry">
                        <mxPoint x="-1" as="offset"/>
                    </mxGeometry>
                </mxCell>
                <mxCell id="245" value="" style="endArrow=none;dashed=1;html=1;dashPattern=1 3;strokeWidth=2;" edge="1" parent="1">
                    <mxGeometry width="50" height="50" relative="1" as="geometry">
                        <mxPoint x="1640" y="2220" as="sourcePoint"/>
                        <mxPoint x="1720" y="2220" as="targetPoint"/>
                    </mxGeometry>
                </mxCell>
                <mxCell id="246" value="" style="endArrow=none;html=1;" edge="1" parent="1">
                    <mxGeometry width="50" height="50" relative="1" as="geometry">
                        <mxPoint x="1580" y="2260" as="sourcePoint"/>
                        <mxPoint x="1640" y="2220" as="targetPoint"/>
                        <Array as="points">
                            <mxPoint x="1580" y="2220"/>
                        </Array>
                    </mxGeometry>
                </mxCell>
                <mxCell id="247" value="" style="endArrow=classic;html=1;exitX=0.5;exitY=0;exitDx=0;exitDy=0;entryX=0.5;entryY=0;entryDx=0;entryDy=0;" edge="1" parent="1" source="218" target="213">
                    <mxGeometry width="50" height="50" relative="1" as="geometry">
                        <mxPoint x="1620" y="2120" as="sourcePoint"/>
                        <mxPoint x="1670" y="2070" as="targetPoint"/>
                        <Array as="points">
                            <mxPoint x="1820" y="2090"/>
                            <mxPoint x="1580" y="2090"/>
                        </Array>
                    </mxGeometry>
                </mxCell>
                <mxCell id="248" value="No" style="edgeLabel;html=1;align=center;verticalAlign=middle;resizable=0;points=[];" vertex="1" connectable="0" parent="247">
                    <mxGeometry x="-0.9398" relative="1" as="geometry">
                        <mxPoint y="-4.57" as="offset"/>
                    </mxGeometry>
                </mxCell>
                <mxCell id="249" value="" style="endArrow=classic;html=1;exitX=0.5;exitY=1;exitDx=0;exitDy=0;entryX=0.5;entryY=1;entryDx=0;entryDy=0;" edge="1" parent="1" source="220" target="213">
                    <mxGeometry width="50" height="50" relative="1" as="geometry">
                        <mxPoint x="1820" y="2660" as="sourcePoint"/>
                        <mxPoint x="1580" y="2860" as="targetPoint"/>
                        <Array as="points">
                            <mxPoint x="1820" y="2630"/>
                            <mxPoint x="1580" y="2630"/>
                        </Array>
                    </mxGeometry>
                </mxCell>
                <mxCell id="250" value="No" style="edgeLabel;html=1;align=center;verticalAlign=middle;resizable=0;points=[];" vertex="1" connectable="0" parent="249">
                    <mxGeometry x="-0.9222" y="-2" relative="1" as="geometry">
                        <mxPoint x="2" as="offset"/>
                    </mxGeometry>
                </mxCell>
                <mxCell id="251" value="" style="endArrow=none;html=1;" edge="1" parent="1">
                    <mxGeometry width="50" height="50" relative="1" as="geometry">
                        <mxPoint x="1580" y="2470" as="sourcePoint"/>
                        <mxPoint x="1640" y="2500" as="targetPoint"/>
                        <Array as="points">
                            <mxPoint x="1580" y="2500"/>
                        </Array>
                    </mxGeometry>
                </mxCell>
                <mxCell id="252" value="" style="endArrow=none;html=1;entryX=0.5;entryY=1;entryDx=0;entryDy=0;" edge="1" parent="1" target="219">
                    <mxGeometry width="50" height="50" relative="1" as="geometry">
                        <mxPoint x="1720" y="2500" as="sourcePoint"/>
                        <mxPoint x="1810" y="2510" as="targetPoint"/>
                        <Array as="points">
                            <mxPoint x="1820" y="2500"/>
                        </Array>
                    </mxGeometry>
                </mxCell>
                <mxCell id="253" value="No" style="edgeLabel;html=1;align=center;verticalAlign=middle;resizable=0;points=[];" vertex="1" connectable="0" parent="252">
                    <mxGeometry x="0.7943" y="-2" relative="1" as="geometry">
                        <mxPoint x="2" y="3.43" as="offset"/>
                    </mxGeometry>
                </mxCell>
                <mxCell id="254" value="" style="endArrow=none;dashed=1;html=1;dashPattern=1 3;strokeWidth=2;" edge="1" parent="1">
                    <mxGeometry width="50" height="50" relative="1" as="geometry">
                        <mxPoint x="1640" y="2500" as="sourcePoint"/>
                        <mxPoint x="1720" y="2500" as="targetPoint"/>
                    </mxGeometry>
                </mxCell>
                <mxCell id="255" value="Existing note selected" style="rhombus;whiteSpace=wrap;html=1;rounded=0;" vertex="1" parent="1">
                    <mxGeometry x="1300" y="2970" width="80" height="80" as="geometry"/>
                </mxCell>
                <mxCell id="256" value="Ellipsis menu&lt;br&gt;displayed" style="rounded=1;whiteSpace=wrap;html=1;" vertex="1" parent="1">
                    <mxGeometry x="1520" y="2980" width="120" height="60" as="geometry"/>
                </mxCell>
                <mxCell id="257" value="" style="endArrow=classic;html=1;exitX=1;exitY=0.5;exitDx=0;exitDy=0;entryX=0;entryY=0.5;entryDx=0;entryDy=0;" edge="1" parent="1" target="256">
                    <mxGeometry width="50" height="50" relative="1" as="geometry">
                        <mxPoint x="1380" y="3009.58" as="sourcePoint"/>
                        <mxPoint x="1510" y="3010" as="targetPoint"/>
                    </mxGeometry>
                </mxCell>
                <mxCell id="258" value="Yes" style="edgeLabel;html=1;align=center;verticalAlign=middle;resizable=0;points=[];" vertex="1" connectable="0" parent="257">
                    <mxGeometry x="-0.1383" y="1" relative="1" as="geometry">
                        <mxPoint as="offset"/>
                    </mxGeometry>
                </mxCell>
                <mxCell id="259" value="Marked for&lt;br&gt;deletion" style="rhombus;whiteSpace=wrap;html=1;rounded=0;" vertex="1" parent="1">
                    <mxGeometry x="1780" y="2970" width="80" height="80" as="geometry"/>
                </mxCell>
                <mxCell id="260" value="" style="endArrow=classic;html=1;entryX=0;entryY=0.5;entryDx=0;entryDy=0;exitX=1;exitY=0.5;exitDx=0;exitDy=0;" edge="1" parent="1" source="256" target="259">
                    <mxGeometry width="50" height="50" relative="1" as="geometry">
                        <mxPoint x="1660" y="3010" as="sourcePoint"/>
                        <mxPoint x="1780" y="2883" as="targetPoint"/>
                        <Array as="points"/>
                    </mxGeometry>
                </mxCell>
                <mxCell id="261" value="Task deleted&lt;br&gt;from daily log" style="rounded=1;whiteSpace=wrap;html=1;" vertex="1" parent="1">
                    <mxGeometry x="2000" y="2980" width="120" height="60" as="geometry"/>
                </mxCell>
                <mxCell id="262" value="" style="endArrow=classic;html=1;entryX=0;entryY=0.5;entryDx=0;entryDy=0;exitX=1;exitY=0.5;exitDx=0;exitDy=0;" edge="1" parent="1" source="259" target="261">
                    <mxGeometry width="50" height="50" relative="1" as="geometry">
                        <mxPoint x="1780" y="3000" as="sourcePoint"/>
                        <mxPoint x="1920" y="3000" as="targetPoint"/>
                    </mxGeometry>
                </mxCell>
                <mxCell id="263" value="Yes" style="edgeLabel;html=1;align=center;verticalAlign=middle;resizable=0;points=[];" vertex="1" connectable="0" parent="262">
                    <mxGeometry x="-0.0547" relative="1" as="geometry">
                        <mxPoint x="-5.83" as="offset"/>
                    </mxGeometry>
                </mxCell>
                <mxCell id="264" value="" style="endArrow=classic;html=1;entryX=0;entryY=0.5;entryDx=0;entryDy=0;" edge="1" parent="1" target="255">
                    <mxGeometry width="50" height="50" relative="1" as="geometry">
                        <mxPoint x="1100" y="2340" as="sourcePoint"/>
                        <mxPoint x="1300" y="2820" as="targetPoint"/>
                        <Array as="points">
                            <mxPoint x="1100" y="3010"/>
                        </Array>
                    </mxGeometry>
                </mxCell>
                <mxCell id="265" value="" style="endArrow=none;html=1;exitX=0.5;exitY=0;exitDx=0;exitDy=0;" edge="1" parent="1" source="212">
                    <mxGeometry width="50" height="50" relative="1" as="geometry">
                        <mxPoint x="1480" y="2130" as="sourcePoint"/>
                        <mxPoint x="2720" y="1980" as="targetPoint"/>
                        <Array as="points">
                            <mxPoint x="1340" y="2020"/>
                            <mxPoint x="2720" y="2020"/>
                        </Array>
                    </mxGeometry>
                </mxCell>
                <mxCell id="266" value="No" style="edgeLabel;html=1;align=center;verticalAlign=middle;resizable=0;points=[];" vertex="1" connectable="0" parent="265">
                    <mxGeometry x="-0.9752" y="-1" relative="1" as="geometry">
                        <mxPoint x="-1" as="offset"/>
                    </mxGeometry>
                </mxCell>
                <mxCell id="267" value="" style="endArrow=classic;html=1;exitX=0.5;exitY=0;exitDx=0;exitDy=0;entryX=0.5;entryY=0;entryDx=0;entryDy=0;" edge="1" parent="1" source="259" target="256">
                    <mxGeometry width="50" height="50" relative="1" as="geometry">
                        <mxPoint x="1830" y="2880" as="sourcePoint"/>
                        <mxPoint x="1580" y="2910" as="targetPoint"/>
                        <Array as="points">
                            <mxPoint x="1820" y="2900"/>
                            <mxPoint x="1580" y="2900"/>
                        </Array>
                    </mxGeometry>
                </mxCell>
                <mxCell id="268" value="No" style="edgeLabel;html=1;align=center;verticalAlign=middle;resizable=0;points=[];" vertex="1" connectable="0" parent="267">
                    <mxGeometry x="-0.0547" relative="1" as="geometry">
                        <mxPoint x="114.17" y="40" as="offset"/>
                    </mxGeometry>
                </mxCell>
                <mxCell id="269" value="" style="endArrow=none;html=1;exitX=1;exitY=0.5;exitDx=0;exitDy=0;" edge="1" parent="1" source="261">
                    <mxGeometry width="50" height="50" relative="1" as="geometry">
                        <mxPoint x="2220" y="3020" as="sourcePoint"/>
                        <mxPoint x="2720" y="2540" as="targetPoint"/>
                        <Array as="points">
                            <mxPoint x="2720" y="3010"/>
                        </Array>
                    </mxGeometry>
                </mxCell>
                <mxCell id="270" value="" style="endArrow=none;html=1;exitX=0.5;exitY=0;exitDx=0;exitDy=0;" edge="1" parent="1" source="255">
                    <mxGeometry width="50" height="50" relative="1" as="geometry">
                        <mxPoint x="1660" y="2720" as="sourcePoint"/>
                        <mxPoint x="2720" y="2820" as="targetPoint"/>
                        <Array as="points">
                            <mxPoint x="1340" y="2860"/>
                            <mxPoint x="2720" y="2860"/>
                        </Array>
                    </mxGeometry>
                </mxCell>
                <mxCell id="271" value="No" style="edgeLabel;html=1;align=center;verticalAlign=middle;resizable=0;points=[];" vertex="1" connectable="0" parent="270">
                    <mxGeometry x="-0.9632" y="1" relative="1" as="geometry">
                        <mxPoint x="1" as="offset"/>
                    </mxGeometry>
                </mxCell>
                <mxCell id="272" value="Reflection&lt;br&gt;selected" style="rhombus;whiteSpace=wrap;html=1;rounded=0;" vertex="1" parent="1">
                    <mxGeometry x="1300" y="3210" width="80" height="80" as="geometry"/>
                </mxCell>
                <mxCell id="273" value="Reflection input" style="shape=parallelogram;perimeter=parallelogramPerimeter;whiteSpace=wrap;html=1;fixedSize=1;rounded=1;" vertex="1" parent="1">
                    <mxGeometry x="1520" y="3220" width="120" height="60" as="geometry"/>
                </mxCell>
                <mxCell id="274" value="" style="endArrow=classic;html=1;exitX=1;exitY=0.5;exitDx=0;exitDy=0;entryX=0;entryY=0.5;entryDx=0;entryDy=0;" edge="1" parent="1" source="272" target="273">
                    <mxGeometry width="50" height="50" relative="1" as="geometry">
                        <mxPoint x="1380" y="3190" as="sourcePoint"/>
                        <mxPoint x="1520" y="3190.42" as="targetPoint"/>
                    </mxGeometry>
                </mxCell>
                <mxCell id="275" value="Yes" style="edgeLabel;html=1;align=center;verticalAlign=middle;resizable=0;points=[];" vertex="1" connectable="0" parent="274">
                    <mxGeometry x="-0.1383" y="1" relative="1" as="geometry">
                        <mxPoint as="offset"/>
                    </mxGeometry>
                </mxCell>
                <mxCell id="276" value="Reflection updated" style="rounded=1;whiteSpace=wrap;html=1;" vertex="1" parent="1">
                    <mxGeometry x="1760" y="3220" width="120" height="60" as="geometry"/>
                </mxCell>
                <mxCell id="277" value="" style="endArrow=classic;html=1;entryX=0;entryY=0.5;entryDx=0;entryDy=0;" edge="1" parent="1" target="272">
                    <mxGeometry width="50" height="50" relative="1" as="geometry">
                        <mxPoint x="1100" y="2980" as="sourcePoint"/>
                        <mxPoint x="1120" y="3230" as="targetPoint"/>
                        <Array as="points">
                            <mxPoint x="1100" y="3250"/>
                        </Array>
                    </mxGeometry>
                </mxCell>
                <mxCell id="278" value="" style="endArrow=classic;html=1;entryX=0;entryY=0.5;entryDx=0;entryDy=0;exitX=1;exitY=0.5;exitDx=0;exitDy=0;" edge="1" parent="1" source="273" target="276">
                    <mxGeometry width="50" height="50" relative="1" as="geometry">
                        <mxPoint x="1650" y="3310" as="sourcePoint"/>
                        <mxPoint x="1700" y="3260" as="targetPoint"/>
                    </mxGeometry>
                </mxCell>
                <mxCell id="279" value="" style="endArrow=none;html=1;exitX=1;exitY=0.5;exitDx=0;exitDy=0;" edge="1" parent="1" source="276">
                    <mxGeometry width="50" height="50" relative="1" as="geometry">
                        <mxPoint x="1980" y="3250" as="sourcePoint"/>
                        <mxPoint x="2720" y="2980" as="targetPoint"/>
                        <Array as="points">
                            <mxPoint x="2720" y="3250"/>
                        </Array>
                    </mxGeometry>
                </mxCell>
                <mxCell id="280" value="" style="endArrow=none;html=1;exitX=0.5;exitY=0;exitDx=0;exitDy=0;" edge="1" parent="1" source="272">
                    <mxGeometry width="50" height="50" relative="1" as="geometry">
                        <mxPoint x="1350" y="3170" as="sourcePoint"/>
                        <mxPoint x="2720" y="3100" as="targetPoint"/>
                        <Array as="points">
                            <mxPoint x="1340" y="3140"/>
                            <mxPoint x="2720" y="3140"/>
                        </Array>
                    </mxGeometry>
                </mxCell>
                <mxCell id="281" value="" style="endArrow=none;html=1;entryX=0.5;entryY=0;entryDx=0;entryDy=0;" edge="1" parent="1" target="187">
                    <mxGeometry width="50" height="50" relative="1" as="geometry">
                        <mxPoint x="1500" y="1060" as="sourcePoint"/>
                        <mxPoint x="1530" y="1080" as="targetPoint"/>
                        <Array as="points">
                            <mxPoint x="1580" y="1060"/>
                        </Array>
                    </mxGeometry>
                </mxCell>
                <mxCell id="282" value="Daily log given focus" style="rhombus;whiteSpace=wrap;html=1;rounded=0;" vertex="1" parent="1">
                    <mxGeometry x="340" y="1080" width="80" height="80" as="geometry"/>
                </mxCell>
                <mxCell id="283" value="" style="endArrow=classic;html=1;entryX=1;entryY=0.5;entryDx=0;entryDy=0;exitX=0;exitY=0.25;exitDx=0;exitDy=0;" edge="1" parent="1" source="209" target="282">
                    <mxGeometry width="50" height="50" relative="1" as="geometry">
                        <mxPoint x="500" y="1240" as="sourcePoint"/>
                        <mxPoint x="360" y="1240" as="targetPoint"/>
                        <Array as="points">
                            <mxPoint x="480" y="1155"/>
                            <mxPoint x="480" y="1120"/>
                        </Array>
                    </mxGeometry>
                </mxCell>
                <mxCell id="284" value="Navigate to Index&amp;nbsp;" style="rhombus;whiteSpace=wrap;html=1;rounded=0;" vertex="1" parent="1">
                    <mxGeometry x="340" y="1180" width="80" height="80" as="geometry"/>
                </mxCell>
                <mxCell id="285" value="" style="endArrow=classic;html=1;entryX=1;entryY=0.5;entryDx=0;entryDy=0;exitX=0;exitY=0.75;exitDx=0;exitDy=0;" edge="1" parent="1" source="209" target="284">
                    <mxGeometry width="50" height="50" relative="1" as="geometry">
                        <mxPoint x="570" y="1255" as="sourcePoint"/>
                        <mxPoint x="430" y="1230" as="targetPoint"/>
                        <Array as="points">
                            <mxPoint x="480" y="1185"/>
                            <mxPoint x="480" y="1220"/>
                        </Array>
                    </mxGeometry>
                </mxCell>
                <mxCell id="286" value="" style="endArrow=classic;html=1;exitX=0;exitY=0.5;exitDx=0;exitDy=0;" edge="1" parent="1" source="284">
                    <mxGeometry width="50" height="50" relative="1" as="geometry">
                        <mxPoint x="240" y="1210" as="sourcePoint"/>
                        <mxPoint x="200" y="1220" as="targetPoint"/>
                    </mxGeometry>
                </mxCell>
                <mxCell id="287" value="Yes" style="edgeLabel;html=1;align=center;verticalAlign=middle;resizable=0;points=[];" vertex="1" connectable="0" parent="286">
                    <mxGeometry x="-0.6086" relative="1" as="geometry">
                        <mxPoint as="offset"/>
                    </mxGeometry>
                </mxCell>
                <mxCell id="288" value="Terminate process" style="ellipse;whiteSpace=wrap;html=1;rounded=0;" vertex="1" parent="1">
                    <mxGeometry x="80" y="1180" width="120" height="80" as="geometry"/>
                </mxCell>
                <mxCell id="289" value="" style="endArrow=classic;html=1;entryX=0.5;entryY=1;entryDx=0;entryDy=0;exitX=0.5;exitY=1;exitDx=0;exitDy=0;" edge="1" parent="1" source="284" target="209">
                    <mxGeometry width="50" height="50" relative="1" as="geometry">
                        <mxPoint x="420" y="1310" as="sourcePoint"/>
                        <mxPoint x="470" y="1260" as="targetPoint"/>
                        <Array as="points">
                            <mxPoint x="380" y="1300"/>
                            <mxPoint x="620" y="1300"/>
                        </Array>
                    </mxGeometry>
                </mxCell>
                <mxCell id="290" value="No" style="edgeLabel;html=1;align=center;verticalAlign=middle;resizable=0;points=[];" vertex="1" connectable="0" parent="289">
                    <mxGeometry x="-0.9161" y="1" relative="1" as="geometry">
                        <mxPoint x="-1" y="4" as="offset"/>
                    </mxGeometry>
                </mxCell>
                <mxCell id="291" value="" style="endArrow=classic;html=1;entryX=0.5;entryY=0;entryDx=0;entryDy=0;exitX=0.5;exitY=0;exitDx=0;exitDy=0;" edge="1" parent="1" source="282" target="209">
                    <mxGeometry width="50" height="50" relative="1" as="geometry">
                        <mxPoint x="500" y="1130" as="sourcePoint"/>
                        <mxPoint x="550" y="1080" as="targetPoint"/>
                        <Array as="points">
                            <mxPoint x="380" y="1070"/>
                            <mxPoint x="620" y="1070"/>
                        </Array>
                    </mxGeometry>
                </mxCell>
                <mxCell id="292" value="No" style="edgeLabel;html=1;align=center;verticalAlign=middle;resizable=0;points=[];" vertex="1" connectable="0" parent="291">
                    <mxGeometry x="-0.7583" y="-1" relative="1" as="geometry">
                        <mxPoint y="-1" as="offset"/>
                    </mxGeometry>
                </mxCell>
                <mxCell id="293" value="Dash '-' created" style="rhombus;whiteSpace=wrap;html=1;rounded=0;" vertex="1" parent="1">
                    <mxGeometry x="1780" y="1370" width="80" height="80" as="geometry"/>
                </mxCell>
                <mxCell id="294" value="Open/close bracket '[ ]' created" style="rhombus;whiteSpace=wrap;html=1;rounded=0;" vertex="1" parent="1">
                    <mxGeometry x="1780" y="1280" width="80" height="80" as="geometry"/>
                </mxCell>
                <mxCell id="295" value="Tilde (~) created" style="rhombus;whiteSpace=wrap;html=1;rounded=0;" vertex="1" parent="1">
                    <mxGeometry x="1780" y="1470" width="80" height="80" as="geometry"/>
                </mxCell>
                <mxCell id="296" value="" style="endArrow=classic;html=1;entryX=0;entryY=0.5;entryDx=0;entryDy=0;exitX=1;exitY=0.5;exitDx=0;exitDy=0;" edge="1" parent="1" source="192" target="293">
                    <mxGeometry width="50" height="50" relative="1" as="geometry">
                        <mxPoint x="1610" y="1360" as="sourcePoint"/>
                        <mxPoint x="1660" y="1310" as="targetPoint"/>
                    </mxGeometry>
                </mxCell>
                <mxCell id="297" value="" style="endArrow=classic;html=1;entryX=0;entryY=0.5;entryDx=0;entryDy=0;exitX=1;exitY=0.25;exitDx=0;exitDy=0;" edge="1" parent="1" source="192">
                    <mxGeometry width="50" height="50" relative="1" as="geometry">
                        <mxPoint x="1640" y="1319.6600000000003" as="sourcePoint"/>
                        <mxPoint x="1780" y="1319.6600000000003" as="targetPoint"/>
                        <Array as="points">
                            <mxPoint x="1720" y="1395"/>
                            <mxPoint x="1720" y="1320"/>
                        </Array>
                    </mxGeometry>
                </mxCell>
                <mxCell id="298" value="" style="endArrow=classic;html=1;entryX=-0.059;entryY=0.499;entryDx=0;entryDy=0;entryPerimeter=0;exitX=1;exitY=0.75;exitDx=0;exitDy=0;" edge="1" parent="1" source="192" target="295">
                    <mxGeometry width="50" height="50" relative="1" as="geometry">
                        <mxPoint x="1650" y="1510" as="sourcePoint"/>
                        <mxPoint x="1700" y="1460" as="targetPoint"/>
                        <Array as="points">
                            <mxPoint x="1720" y="1425"/>
                            <mxPoint x="1720" y="1510"/>
                        </Array>
                    </mxGeometry>
                </mxCell>
                <mxCell id="299" value="Parse as task" style="rounded=1;whiteSpace=wrap;html=1;" vertex="1" parent="1">
                    <mxGeometry x="2000" y="1290" width="120" height="60" as="geometry"/>
                </mxCell>
                <mxCell id="300" value="Parse as note" style="rounded=1;whiteSpace=wrap;html=1;" vertex="1" parent="1">
                    <mxGeometry x="2000" y="1380" width="120" height="60" as="geometry"/>
                </mxCell>
                <mxCell id="301" value="Parse as event" style="rounded=1;whiteSpace=wrap;html=1;" vertex="1" parent="1">
                    <mxGeometry x="2000" y="1480" width="120" height="60" as="geometry"/>
                </mxCell>
                <mxCell id="302" value="" style="endArrow=classic;html=1;entryX=0;entryY=0.5;entryDx=0;entryDy=0;exitX=1;exitY=0.5;exitDx=0;exitDy=0;" edge="1" parent="1" source="294" target="299">
                    <mxGeometry width="50" height="50" relative="1" as="geometry">
                        <mxPoint x="1870" y="1350" as="sourcePoint"/>
                        <mxPoint x="1920" y="1300" as="targetPoint"/>
                    </mxGeometry>
                </mxCell>
                <mxCell id="303" value="Yes" style="edgeLabel;html=1;align=center;verticalAlign=middle;resizable=0;points=[];" vertex="1" connectable="0" parent="302">
                    <mxGeometry x="-0.5416" y="1" relative="1" as="geometry">
                        <mxPoint x="-12" as="offset"/>
                    </mxGeometry>
                </mxCell>
                <mxCell id="304" value="" style="endArrow=classic;html=1;entryX=0;entryY=0.5;entryDx=0;entryDy=0;exitX=1;exitY=0.5;exitDx=0;exitDy=0;" edge="1" parent="1" source="293" target="300">
                    <mxGeometry width="50" height="50" relative="1" as="geometry">
                        <mxPoint x="1890" y="1390" as="sourcePoint"/>
                        <mxPoint x="1940" y="1340" as="targetPoint"/>
                    </mxGeometry>
                </mxCell>
                <mxCell id="305" value="Yes" style="edgeLabel;html=1;align=center;verticalAlign=middle;resizable=0;points=[];" vertex="1" connectable="0" parent="304">
                    <mxGeometry x="-0.7179" y="-1" relative="1" as="geometry">
                        <mxPoint y="-1" as="offset"/>
                    </mxGeometry>
                </mxCell>
                <mxCell id="306" value="" style="endArrow=classic;html=1;entryX=0;entryY=0.5;entryDx=0;entryDy=0;exitX=1;exitY=0.5;exitDx=0;exitDy=0;" edge="1" parent="1" source="295" target="301">
                    <mxGeometry width="50" height="50" relative="1" as="geometry">
                        <mxPoint x="1890" y="1500" as="sourcePoint"/>
                        <mxPoint x="1940" y="1450" as="targetPoint"/>
                    </mxGeometry>
                </mxCell>
                <mxCell id="307" value="Yes" style="edgeLabel;html=1;align=center;verticalAlign=middle;resizable=0;points=[];" vertex="1" connectable="0" parent="306">
                    <mxGeometry x="-0.7261" y="1" relative="1" as="geometry">
                        <mxPoint x="0.57" y="1" as="offset"/>
                    </mxGeometry>
                </mxCell>
                <mxCell id="308" value="Field properly&lt;br&gt;formatted" style="rhombus;whiteSpace=wrap;html=1;rounded=0;" vertex="1" parent="1">
                    <mxGeometry x="1780" y="1690" width="80" height="80" as="geometry"/>
                </mxCell>
                <mxCell id="309" value="" style="endArrow=none;html=1;entryX=0.5;entryY=1;entryDx=0;entryDy=0;" edge="1" parent="1" target="293">
                    <mxGeometry width="50" height="50" relative="1" as="geometry">
                        <mxPoint x="1760" y="1460" as="sourcePoint"/>
                        <mxPoint x="1700" y="1460" as="targetPoint"/>
                        <Array as="points">
                            <mxPoint x="1820" y="1460"/>
                        </Array>
                    </mxGeometry>
                </mxCell>
                <mxCell id="310" value="No" style="edgeLabel;html=1;align=center;verticalAlign=middle;resizable=0;points=[];" vertex="1" connectable="0" parent="309">
                    <mxGeometry x="-0.2823" y="3" relative="1" as="geometry">
                        <mxPoint x="4.86" y="3" as="offset"/>
                    </mxGeometry>
                </mxCell>
                <mxCell id="311" value="" style="endArrow=none;dashed=1;html=1;dashPattern=1 3;strokeWidth=2;" edge="1" parent="1">
                    <mxGeometry width="50" height="50" relative="1" as="geometry">
                        <mxPoint x="1520" y="1460" as="sourcePoint"/>
                        <mxPoint x="1760" y="1460" as="targetPoint"/>
                    </mxGeometry>
                </mxCell>
                <mxCell id="312" value="" style="endArrow=none;html=1;" edge="1" parent="1">
                    <mxGeometry width="50" height="50" relative="1" as="geometry">
                        <mxPoint x="1500" y="1410" as="sourcePoint"/>
                        <mxPoint x="1520" y="1460" as="targetPoint"/>
                        <Array as="points">
                            <mxPoint x="1480" y="1410"/>
                            <mxPoint x="1480" y="1460"/>
                        </Array>
                    </mxGeometry>
                </mxCell>
                <mxCell id="313" value="" style="endArrow=none;html=1;entryX=0.5;entryY=1;entryDx=0;entryDy=0;" edge="1" parent="1" target="295">
                    <mxGeometry width="50" height="50" relative="1" as="geometry">
                        <mxPoint x="1640" y="1610" as="sourcePoint"/>
                        <mxPoint x="1830" y="1600" as="targetPoint"/>
                        <Array as="points">
                            <mxPoint x="1820" y="1610"/>
                        </Array>
                    </mxGeometry>
                </mxCell>
                <mxCell id="314" value="No" style="edgeLabel;html=1;align=center;verticalAlign=middle;resizable=0;points=[];" vertex="1" connectable="0" parent="313">
                    <mxGeometry x="0.9455" y="1" relative="1" as="geometry">
                        <mxPoint x="1" as="offset"/>
                    </mxGeometry>
                </mxCell>
                <mxCell id="315" value="" style="endArrow=none;html=1;entryX=0.5;entryY=0;entryDx=0;entryDy=0;" edge="1" parent="1" target="294">
                    <mxGeometry width="50" height="50" relative="1" as="geometry">
                        <mxPoint x="1500" y="1410" as="sourcePoint"/>
                        <mxPoint x="1570" y="1290" as="targetPoint"/>
                        <Array as="points">
                            <mxPoint x="1480" y="1410"/>
                            <mxPoint x="1480" y="1260"/>
                            <mxPoint x="1820" y="1260"/>
                        </Array>
                    </mxGeometry>
                </mxCell>
                <mxCell id="316" value="No" style="edgeLabel;html=1;align=center;verticalAlign=middle;resizable=0;points=[];" vertex="1" connectable="0" parent="315">
                    <mxGeometry x="0.967" relative="1" as="geometry">
                        <mxPoint y="-1.17" as="offset"/>
                    </mxGeometry>
                </mxCell>
                <mxCell id="317" value="" style="endArrow=none;dashed=1;html=1;dashPattern=1 3;strokeWidth=2;" edge="1" parent="1">
                    <mxGeometry width="50" height="50" relative="1" as="geometry">
                        <mxPoint x="1520" y="1610" as="sourcePoint"/>
                        <mxPoint x="1640" y="1610" as="targetPoint"/>
                    </mxGeometry>
                </mxCell>
                <mxCell id="318" value="" style="endArrow=none;html=1;" edge="1" parent="1">
                    <mxGeometry width="50" height="50" relative="1" as="geometry">
                        <mxPoint x="1480" y="1450" as="sourcePoint"/>
                        <mxPoint x="1520" y="1610" as="targetPoint"/>
                        <Array as="points">
                            <mxPoint x="1480" y="1610"/>
                        </Array>
                    </mxGeometry>
                </mxCell>
                <mxCell id="319" value="" style="endArrow=none;html=1;entryX=1;entryY=0.5;entryDx=0;entryDy=0;" edge="1" parent="1" target="301">
                    <mxGeometry width="50" height="50" relative="1" as="geometry">
                        <mxPoint x="1800" y="1610" as="sourcePoint"/>
                        <mxPoint x="2160" y="1370" as="targetPoint"/>
                        <Array as="points">
                            <mxPoint x="2160" y="1610"/>
                            <mxPoint x="2160" y="1510"/>
                        </Array>
                    </mxGeometry>
                </mxCell>
                <mxCell id="320" value="" style="endArrow=none;html=1;entryX=1;entryY=0.5;entryDx=0;entryDy=0;" edge="1" parent="1" target="300">
                    <mxGeometry width="50" height="50" relative="1" as="geometry">
                        <mxPoint x="2160" y="1520" as="sourcePoint"/>
                        <mxPoint x="2210" y="1430" as="targetPoint"/>
                        <Array as="points">
                            <mxPoint x="2160" y="1410"/>
                        </Array>
                    </mxGeometry>
                </mxCell>
                <mxCell id="321" value="" style="endArrow=none;html=1;entryX=1;entryY=0.5;entryDx=0;entryDy=0;" edge="1" parent="1" target="299">
                    <mxGeometry width="50" height="50" relative="1" as="geometry">
                        <mxPoint x="2160" y="1430" as="sourcePoint"/>
                        <mxPoint x="2200" y="1340" as="targetPoint"/>
                        <Array as="points">
                            <mxPoint x="2160" y="1320"/>
                        </Array>
                    </mxGeometry>
                </mxCell>
                <mxCell id="322" value="Text field saved" style="rhombus;whiteSpace=wrap;html=1;rounded=0;" vertex="1" parent="1">
                    <mxGeometry x="1610" y="1690" width="80" height="80" as="geometry"/>
                </mxCell>
                <mxCell id="323" value="" style="endArrow=classic;html=1;exitX=0.75;exitY=1;exitDx=0;exitDy=0;entryX=0.5;entryY=0;entryDx=0;entryDy=0;" edge="1" parent="1" source="192" target="322">
                    <mxGeometry width="50" height="50" relative="1" as="geometry">
                        <mxPoint x="1780" y="1670" as="sourcePoint"/>
                        <mxPoint x="1630" y="1710" as="targetPoint"/>
                        <Array as="points">
                            <mxPoint x="1610" y="1640"/>
                            <mxPoint x="1650" y="1640"/>
                        </Array>
                    </mxGeometry>
                </mxCell>
                <mxCell id="324" value="" style="endArrow=none;html=1;exitX=0;exitY=0.5;exitDx=0;exitDy=0;" edge="1" parent="1" source="322">
                    <mxGeometry width="50" height="50" relative="1" as="geometry">
                        <mxPoint x="1600" y="1800" as="sourcePoint"/>
                        <mxPoint x="1580" y="1660" as="targetPoint"/>
                        <Array as="points">
                            <mxPoint x="1580" y="1730"/>
                        </Array>
                    </mxGeometry>
                </mxCell>
                <mxCell id="325" value="No" style="edgeLabel;html=1;align=center;verticalAlign=middle;resizable=0;points=[];" vertex="1" connectable="0" parent="324">
                    <mxGeometry x="-0.7028" relative="1" as="geometry">
                        <mxPoint as="offset"/>
                    </mxGeometry>
                </mxCell>
                <mxCell id="326" value="" style="endArrow=none;dashed=1;html=1;dashPattern=1 3;strokeWidth=2;" edge="1" parent="1">
                    <mxGeometry width="50" height="50" relative="1" as="geometry">
                        <mxPoint x="1580" y="1660" as="sourcePoint"/>
                        <mxPoint x="1560" y="1610" as="targetPoint"/>
                        <Array as="points">
                            <mxPoint x="1580" y="1610"/>
                        </Array>
                    </mxGeometry>
                </mxCell>
                <mxCell id="327" value="" style="endArrow=none;html=1;exitX=1;exitY=0.5;exitDx=0;exitDy=0;" edge="1" parent="1" source="193">
                    <mxGeometry width="50" height="50" relative="1" as="geometry">
                        <mxPoint x="2170" y="1690" as="sourcePoint"/>
                        <mxPoint x="2220" y="1060" as="targetPoint"/>
                        <Array as="points">
                            <mxPoint x="2240" y="1730"/>
                            <mxPoint x="2240" y="1060"/>
                        </Array>
                    </mxGeometry>
                </mxCell>
                <mxCell id="328" value="" style="endArrow=classic;html=1;entryX=0;entryY=0.5;entryDx=0;entryDy=0;exitX=1;exitY=0.5;exitDx=0;exitDy=0;" edge="1" parent="1" source="322" target="308">
                    <mxGeometry width="50" height="50" relative="1" as="geometry">
                        <mxPoint x="1500" y="1850" as="sourcePoint"/>
                        <mxPoint x="1550" y="1800" as="targetPoint"/>
                    </mxGeometry>
                </mxCell>
                <mxCell id="329" value="Yes" style="edgeLabel;html=1;align=center;verticalAlign=middle;resizable=0;points=[];" vertex="1" connectable="0" parent="328">
                    <mxGeometry x="-0.5148" y="1" relative="1" as="geometry">
                        <mxPoint x="-2.07" y="1" as="offset"/>
                    </mxGeometry>
                </mxCell>
                <mxCell id="330" value="" style="endArrow=classic;html=1;exitX=1;exitY=0.5;exitDx=0;exitDy=0;" edge="1" parent="1" source="308" target="193">
                    <mxGeometry width="50" height="50" relative="1" as="geometry">
                        <mxPoint x="1880" y="1729.6600000000003" as="sourcePoint"/>
                        <mxPoint x="1970" y="1729.6600000000003" as="targetPoint"/>
                    </mxGeometry>
                </mxCell>
                <mxCell id="331" value="Yes" style="edgeLabel;html=1;align=center;verticalAlign=middle;resizable=0;points=[];" vertex="1" connectable="0" parent="330">
                    <mxGeometry x="-0.5148" y="1" relative="1" as="geometry">
                        <mxPoint x="-2.07" y="1" as="offset"/>
                    </mxGeometry>
                </mxCell>
                <mxCell id="332" value="Alert/notification (formatting incorrect)" style="shape=document;whiteSpace=wrap;html=1;boundedLbl=1;" vertex="1" parent="1">
                    <mxGeometry x="1590" y="1860" width="120" height="80" as="geometry"/>
                </mxCell>
                <mxCell id="333" value="" style="endArrow=classic;html=1;exitX=0.5;exitY=1;exitDx=0;exitDy=0;entryX=1;entryY=0.5;entryDx=0;entryDy=0;" edge="1" parent="1" source="308" target="332">
                    <mxGeometry width="50" height="50" relative="1" as="geometry">
                        <mxPoint x="1770" y="1930" as="sourcePoint"/>
                        <mxPoint x="1820" y="1880" as="targetPoint"/>
                        <Array as="points">
                            <mxPoint x="1820" y="1900"/>
                        </Array>
                    </mxGeometry>
                </mxCell>
                <mxCell id="334" value="No" style="edgeLabel;html=1;align=center;verticalAlign=middle;resizable=0;points=[];" vertex="1" connectable="0" parent="333">
                    <mxGeometry x="-0.8399" y="1" relative="1" as="geometry">
                        <mxPoint x="-1" as="offset"/>
                    </mxGeometry>
                </mxCell>
                <mxCell id="335" value="" style="endArrow=none;html=1;exitX=0;exitY=0.5;exitDx=0;exitDy=0;" edge="1" parent="1" source="332">
                    <mxGeometry width="50" height="50" relative="1" as="geometry">
                        <mxPoint x="1450" y="1790" as="sourcePoint"/>
                        <mxPoint x="1480" y="1600" as="targetPoint"/>
                        <Array as="points">
                            <mxPoint x="1480" y="1900"/>
                        </Array>
                    </mxGeometry>
                </mxCell>
                <mxCell id="336" value="" style="endArrow=classic;html=1;exitX=1;exitY=0.5;exitDx=0;exitDy=0;" edge="1" parent="1" source="31" target="185">
                    <mxGeometry width="50" height="50" relative="1" as="geometry">
                        <mxPoint x="1110" y="820" as="sourcePoint"/>
                        <mxPoint x="1160" y="770" as="targetPoint"/>
                    </mxGeometry>
                </mxCell>
            </root>
        </mxGraphModel>
    </diagram>
</mxfile>